<mxfile host="app.diagrams.net" agent="Mozilla/5.0 (Windows NT 10.0; Win64; x64) AppleWebKit/537.36 (KHTML, like Gecko) Chrome/129.0.0.0 Safari/537.36" version="24.7.17">
  <diagram name="Sivu-1" id="zg6TO-UW9-3CckHh3xhV">
    <mxGraphModel dx="1687" dy="868" grid="1" gridSize="10" guides="1" tooltips="1" connect="1" arrows="1" fold="1" page="1" pageScale="1" pageWidth="827" pageHeight="1169" math="0" shadow="0">
      <root>
        <mxCell id="0" />
        <mxCell id="1" parent="0" />
        <mxCell id="8CCYOC_S3gOLEpidG0MF-1" value="" style="rounded=0;whiteSpace=wrap;html=1;fillStyle=hatch;fillColor=#000000;fontColor=#333333;strokeColor=default;strokeWidth=1;perimeterSpacing=5;" vertex="1" parent="1">
          <mxGeometry x="120" y="170" width="120" height="60" as="geometry" />
        </mxCell>
        <mxCell id="8CCYOC_S3gOLEpidG0MF-2" value="" style="endArrow=none;html=1;rounded=0;" edge="1" parent="1">
          <mxGeometry width="50" height="50" relative="1" as="geometry">
            <mxPoint x="120" y="360" as="sourcePoint" />
            <mxPoint x="800" y="360" as="targetPoint" />
          </mxGeometry>
        </mxCell>
        <mxCell id="8CCYOC_S3gOLEpidG0MF-6" value="" style="verticalLabelPosition=bottom;verticalAlign=top;html=1;shape=mxgraph.basic.arc;startAngle=0.7550242758958112;endAngle=0.1;" vertex="1" parent="1">
          <mxGeometry x="220" y="150" width="630" height="150" as="geometry" />
        </mxCell>
      </root>
    </mxGraphModel>
  </diagram>
</mxfile>
